<?xml version="1.0" encoding="UTF-8"?>
<svg xmlns="http://www.w3.org/2000/svg" version="1.1" viewBox="0 0 1039.7 182.8">
  <defs>
    <style>
      .cls-1 {
        fill: #fff;
      }
    </style>
  </defs>
  <!-- Generator: Adobe Illustrator 28.7.7, SVG Export Plug-In . SVG Version: 1.2.0 Build 194)  -->
  <g>
    <g id="Layer_1">
      <g id="Layer_2">
        <g>
          <path class="cls-1" d="M3.1,24.2v54.6h29.7V29.2h93.8V2.4H24.8C12.8,2.4,3.1,12.2,3.1,24.2Z"/>
          <path class="cls-1" d="M3.1,115.7v64.7h29.7v-69.2h80.7v-17.2H24.8c-12,0-21.7,9.7-21.7,21.7Z"/>
          <polygon class="cls-1" points="290 2.4 245.4 133.6 234.7 167.3 232.9 162.1 223.9 133.6 179.5 2.4 146.2 2.4 146.2 180.4 175.6 180.4 175.6 63.6 175.5 53.5 218.1 180.7 234.8 180.6 251.6 180.7 293.3 56.2 293.1 63.6 293.1 180.4 322.4 180.4 322.4 2.4 290 2.4"/>
          <path class="cls-1" d="M430.6,0c-55.3,0-87.5,42.4-87.5,91.4s26.3,91.4,87.3,91.4,88-42.2,88-91.4S489.1,0,430.6,0ZM430.4,155.3c-41.2,0-57.5-29-57.5-63.9s20.5-64.1,57.8-64.1,58,28.8,58,64.1-19.5,63.9-58.3,63.9Z"/>
          <path class="cls-1" d="M652.9,104.8c0,33.4-13.9,50.5-43.4,50.5s-41.9-17.1-41.9-50.5V2.4h-29.7v103.4c0,53.9,25.8,77,71.7,77s72.9-25.1,72.9-77V2.4h-29.5v102.4h0Z"/>
          <path class="cls-1" d="M822.5,105.8c-5.1-2.4-12.4-3.7-23.6-4.1,26.3-3.7,54.8-20.2,54.8-50.2s-21-49-65.3-49h-59.4c-12,0-21.7,9.7-21.7,21.7v54.5h29.7V29.4l44.9-.4c30,0,43.4,12.4,43.4,32.7-.2,21.2-14.6,32.1-43.4,32.1h-52.9c-12,0-21.7,9.7-21.7,21.7v64.9h29.7v-69.4h32.2c34.1,0,41.2,1.1,49.7,37.2l7.3,32.2h32.2l-8-32.7c-6.3-26.3-12.9-36.8-27.8-41.9h-.1Z"/>
          <path class="cls-1" d="M934.9,2.4l-70.4,177.9h31.2l15-39.3h79.6l15,39.3h31.2L966.1,2.4h-31.2ZM941.2,60.7l9-24.9,9.3,24.9,24.2,63.1h-66.5s24-63.1,24-63.1Z"/>
        </g>
      </g>
    </g>
  </g>
</svg>