<?xml version="1.0" encoding="UTF-8"?>
<svg id="Layer_2" xmlns="http://www.w3.org/2000/svg" viewBox="0 0 1560 182.81">
  <defs>
    <style>
      .cls-1 {
        fill: #fff;
      }
    </style>
  </defs>
  <g id="HOME">
    <g>
      <path class="cls-1" d="M0,115.68v64.7h29.74v-69.19h80.68v-17.24H21.73c-12,0-21.73,9.73-21.73,21.73Z"/>
      <path class="cls-1" d="M0,24.17v54.64h29.74V29.25h93.84V2.44H21.73C9.73,2.44,0,12.17,0,24.17Z"/>
      <polygon class="cls-1" points="286.88 2.44 242.28 133.58 231.6 167.31 229.86 162.1 220.82 133.58 176.46 2.44 143.07 2.44 143.07 180.38 172.56 180.38 172.56 63.62 172.4 53.47 215.01 180.71 231.74 180.63 248.46 180.71 290.17 56.17 290.05 63.62 290.05 180.38 319.3 180.38 319.3 2.44 286.88 2.44"/>
      <path class="cls-1" d="M427.51,0c-55.33,0-87.51,42.41-87.51,91.41s26.33,91.41,87.26,91.41c57.04,0,87.99-42.17,87.99-91.41S486.01,0,427.51,0ZM427.27,155.27c-41.19,0-57.53-29.01-57.53-63.86s20.47-64.11,57.77-64.11c39.24,0,58.01,28.76,58.01,64.11s-19.5,63.86-58.26,63.86Z"/>
      <path class="cls-1" d="M649.8,104.81c0,33.39-13.89,50.46-43.39,50.46s-41.93-17.06-41.93-50.46V2.44h-29.74v103.35c0,53.87,25.84,77.03,71.66,77.03s72.88-25.11,72.88-77.03V2.44h-29.49v102.38Z"/>
      <path class="cls-1" d="M819.43,105.79c-5.12-2.44-12.43-3.66-23.64-4.14,26.32-3.66,54.84-20.23,54.84-50.21s-20.96-48.99-65.32-48.99h-59.44c-12,0-21.73,9.73-21.73,21.73v54.45h29.74V29.44l44.85-.44c29.98,0,43.39,12.43,43.39,32.66-.24,21.21-14.62,32.09-43.39,32.09h-52.86c-12,0-21.73,9.73-21.73,21.73v64.88h29.74v-69.37h32.18c34.12,0,41.19,1.12,49.72,37.2l7.31,32.18h32.17l-8.04-32.66c-6.34-26.33-12.92-36.81-27.79-41.93Z"/>
      <path class="cls-1" d="M931.79,2.44l-70.44,177.94h31.2l15.02-39.32h79.64l15.02,39.32h31.2L962.99,2.44h-31.2ZM938.12,60.69l9.02-24.86,9.26,24.86,24.24,63.12h-66.53l24.01-63.12Z"/>
      <path class="cls-1" d="M1226.95,2.44l-39.98,103.35-13.16,36.81h14.71c8.89,0,16.89-5.42,20.18-13.68l50.42-126.47h-32.17Z"/>
      <polygon class="cls-1" points="1089.72 2.44 1157.72 180.38 1187.77 180.38 1121.47 2.44 1089.72 2.44"/>
      <path class="cls-1" d="M1299.33,2.44l-70.44,177.94h31.2l15.02-39.32h79.64l15.02,39.32h31.2L1330.53,2.44h-31.2ZM1305.67,60.69l9.02-24.86,9.26,24.86,24.24,63.12h-66.53l24.01-63.12Z"/>
      <path class="cls-1" d="M1560,28.03h0s0-.01,0-.01h0s0-25.58,0-25.58h-147.82v26.81h118.75l-120.7,124.81-.05,26.33,26.84-27.29v5.56c0,12,9.73,21.73,21.73,21.73h87.25v-27.3h-108.96l122.96-125.04h0Z"/>
    </g>
  </g>
</svg>